<svg width="20" height="20" viewBox="0 0 20 20" fill="none" xmlns="http://www.w3.org/2000/svg">
<path d="M18.7511 10.1941C18.7511 9.47471 18.6915 8.94971 18.5626 8.40527H10.1797V11.6525H15.1003C15.0011 12.4594 14.4654 13.6747 13.2749 14.4913L13.2582 14.6L15.9087 16.6123L16.0924 16.6303C17.7789 15.1039 18.7511 12.858 18.7511 10.1941" fill="#4285F4"/>
<path d="M10.1793 18.75C12.59 18.75 14.6138 17.9722 16.092 16.6305L13.2745 14.4916C12.5206 15.0068 11.5086 15.3666 10.1793 15.3666C7.81822 15.3666 5.81427 13.8402 5.09992 11.7305L4.99522 11.7392L2.23917 13.8295L2.20312 13.9277C3.67136 16.786 6.68723 18.75 10.1793 18.75Z" fill="#34A853"/>
<path d="M5.10014 11.7302C4.91165 11.1858 4.80257 10.6024 4.80257 9.99967C4.80257 9.39686 4.91165 8.81355 5.09022 8.26911L5.08523 8.15316L2.29464 6.0293L2.20333 6.07186C1.5982 7.25798 1.25098 8.58995 1.25098 9.99967C1.25098 11.4094 1.5982 12.7413 2.20333 13.9274L5.10014 11.7302" fill="#FBBC05"/>
<path d="M10.1793 4.63331C11.8559 4.63331 12.9868 5.34303 13.6317 5.93612L16.1515 3.525C14.604 2.11528 12.59 1.25 10.1793 1.25C6.68725 1.25 3.67137 3.21387 2.20312 6.07218L5.09002 8.26943C5.81429 6.15972 7.81825 4.63331 10.1793 4.63331" fill="#EB4335"/>
</svg>
