<svg width="78" height="40" viewBox="0 0 78 40" fill="none" xmlns="http://www.w3.org/2000/svg">
<path d="M24.311 32.2149C24.311 33.4619 23.325 34.4732 22.1091 34.4732H4.49531C3.27944 34.4732 2.29395 33.4619 2.29395 32.2149V14.1499C2.29395 12.9024 3.27944 11.8916 4.49531 11.8916H22.1091C23.325 11.8916 24.311 12.9024 24.311 14.1499V32.2149Z" fill="#00CC99"/>
<path d="M21.9754 28.0986H11.1866C11.1113 28.1059 11.0383 28.122 10.961 28.122C10.7728 28.122 10.5927 28.0938 10.4178 28.051C10.3367 28.034 10.2599 28.0028 10.1822 27.9761C10.1324 27.9571 10.0803 27.946 10.0319 27.9246C9.76884 27.8127 9.5323 27.647 9.32894 27.4423C9.31614 27.4306 9.30192 27.4204 9.28912 27.4073C9.23319 27.3484 9.18531 27.2804 9.13507 27.2152C9.08529 27.1525 9.03362 27.0927 8.99049 27.0251C8.98527 27.0169 8.98148 27.0071 8.97674 26.9994C8.744 26.624 8.60463 26.1816 8.60463 25.7042L8.61222 7.86774C8.61222 7.16375 8.90659 6.53269 9.37397 6.09124L9.3735 6.07617L3.1306 12.4014C2.62387 12.8443 2.30106 13.503 2.30106 14.2406L2.29395 32.077C2.29395 32.4203 2.34846 32.7548 2.40439 32.9225C2.48735 33.1704 2.61439 33.3902 2.62007 33.3975C2.66368 33.4651 2.71156 33.5424 2.76039 33.6046C2.81063 33.6697 2.88742 33.7568 2.94336 33.8161C2.95568 33.8292 3.05665 33.9235 3.06945 33.9352C3.21829 34.0684 3.35434 34.1462 3.50745 34.2332C3.55295 34.259 3.72408 34.33 3.77432 34.3489C3.85206 34.3752 4.01939 34.4189 4.10045 34.4364C4.27537 34.4792 4.80106 34.4783 4.87643 34.4705H15.6648C16.2772 34.4705 16.8318 34.2036 17.2371 33.7718H17.2542L23.6217 27.363L23.5833 27.3606C23.1752 27.8152 22.6064 28.0986 21.9754 28.0986Z" fill="#FF0000"/>
<path d="M21.9929 23.1805H13.3348L13.3424 7.83232C13.3424 6.4963 12.2872 5.41504 10.9855 5.41504C9.68338 5.41504 8.62868 6.49679 8.62868 7.83232L8.62109 25.6688C8.62109 26.1467 8.76093 26.5886 8.9932 26.9639C8.99842 26.9717 9.00174 26.9814 9.00742 26.9897C9.05056 27.0573 9.1027 27.1171 9.15153 27.1798C9.20177 27.245 9.25012 27.3125 9.30606 27.3719C9.31838 27.385 9.33308 27.3952 9.3454 27.4069C9.54876 27.6111 9.78577 27.7773 10.0484 27.8891C10.0967 27.9105 10.1493 27.9217 10.1991 27.9407C10.2769 27.9669 10.3537 27.9985 10.4347 28.0156C10.6096 28.0583 10.7898 28.0865 10.9775 28.0865C11.0552 28.0865 11.1282 28.071 11.2031 28.0632H21.9919C23.2324 28.0632 24.2388 26.9703 24.2388 25.6231C24.2397 24.2725 23.2334 23.1805 21.9929 23.1805Z" fill="#FFCC00"/>
<path d="M45.9073 30.496L48.0722 27.8658C48.203 27.7379 48.2684 27.5964 48.2684 27.4413C48.2684 27.2863 48.2106 27.1501 48.0959 27.0325C47.9812 26.9143 47.848 26.8555 47.6972 26.8555C47.5455 26.8555 47.4109 26.9158 47.2933 27.0373L44.8711 30.003H44.0477V24.8004C44.0477 24.605 43.9899 24.4484 43.8752 24.3303C43.7604 24.2126 43.604 24.1533 43.4068 24.1533C43.2167 24.1533 43.0636 24.2126 42.9489 24.3303C42.8342 24.4484 42.7764 24.605 42.7764 24.8004V33.8963C42.7764 34.0918 42.8342 34.2498 42.9489 34.3713C43.0636 34.4924 43.2167 34.5532 43.4068 34.5532C43.604 34.5532 43.7604 34.4929 43.8752 34.3713C43.9899 34.2503 44.0477 34.0918 44.0477 33.8963V31.0911H44.918L47.3284 34.3208C47.4664 34.4623 47.6171 34.5328 47.7816 34.5328C47.9394 34.5328 48.076 34.4739 48.1902 34.3558C48.3049 34.2381 48.3627 34.1015 48.3627 33.9469C48.3627 33.7855 48.2969 33.6406 48.1655 33.5123L45.9073 30.496Z" fill="#00CC99"/>
<path d="M29.2689 34.3067C28.7513 34.1205 28.345 33.8774 28.0525 33.5765C27.9397 33.4613 27.8838 33.3242 27.8838 33.1647C27.8838 32.9522 27.9705 32.7792 28.1431 32.6469C28.3066 32.523 28.4583 32.4607 28.5962 32.4607C28.7688 32.4607 28.9323 32.5405 29.0873 32.6999C29.2518 32.8861 29.4974 33.0475 29.8259 33.1846C30.1539 33.3217 30.5032 33.3903 30.8744 33.3903C31.3664 33.3903 31.7476 33.3067 32.0197 33.138C32.2922 32.9702 32.4278 32.7442 32.4278 32.4607C32.4278 32.1865 32.2941 31.9585 32.0268 31.7772C31.7585 31.5958 31.3062 31.4427 30.6668 31.3187C29.0096 30.9915 28.1815 30.2919 28.1815 29.2208C28.1815 28.7872 28.3061 28.4196 28.5574 28.1187C28.8077 27.8182 29.1352 27.5921 29.541 27.4414C29.9463 27.2907 30.3781 27.2158 30.836 27.2158C31.3968 27.2158 31.8997 27.3087 32.3444 27.4944C32.7885 27.6801 33.1407 27.9373 33.3991 28.2645C33.5109 28.406 33.5678 28.548 33.5678 28.6894C33.5678 28.8406 33.4939 28.9777 33.3474 29.1012C33.2526 29.1722 33.1317 29.2077 32.9852 29.2077C32.7606 29.2077 32.5572 29.1236 32.3766 28.9554C32.1609 28.7517 31.9315 28.6082 31.6902 28.5236C31.448 28.4395 31.1546 28.3977 30.8095 28.3977C30.4122 28.3977 30.0871 28.4663 29.8325 28.6034C29.578 28.741 29.4504 28.933 29.4504 29.181C29.4504 29.3584 29.4936 29.5067 29.5794 29.6258C29.6661 29.7454 29.8297 29.8558 30.0714 29.9574C30.3127 30.0595 30.662 30.1591 31.12 30.2564C32.0609 30.4509 32.7274 30.7207 33.1203 31.0664C33.5133 31.4115 33.7091 31.8588 33.7091 32.4072C33.7091 32.8147 33.6015 33.1842 33.3858 33.5162C33.1701 33.8478 32.853 34.1089 32.4339 34.2994C32.0159 34.49 31.5129 34.5853 30.9256 34.5853C30.3392 34.5853 29.7875 34.4925 29.2689 34.3067Z" fill="#00CC99"/>
<path d="M41.3235 31.2054C41.2116 31.3162 41.0689 31.3712 40.8964 31.3712H35.976C36.0708 31.9911 36.3453 32.4909 36.798 32.8715C37.2511 33.2522 37.8057 33.4428 38.4623 33.4428C38.7206 33.4428 38.9908 33.3942 39.2714 33.2969C39.5516 33.1992 39.7824 33.0796 39.964 32.9381C40.0839 32.8409 40.2266 32.7923 40.3911 32.7923C40.5546 32.7923 40.6835 32.8365 40.7793 32.925C40.9348 33.0573 41.0125 33.2085 41.0125 33.3767C41.0125 33.5361 40.9428 33.6684 40.8049 33.7749C40.5115 34.0141 40.1474 34.2085 39.7113 34.3588C39.2752 34.51 38.8586 34.5848 38.4623 34.5848C37.7541 34.5848 37.1194 34.4278 36.5586 34.1132C35.9978 33.7992 35.5598 33.3631 35.2446 32.8054C34.9294 32.2473 34.7725 31.6148 34.7725 30.9064C34.7725 30.198 34.9213 29.5631 35.2185 29.0006C35.5167 28.4386 35.931 28 36.4619 27.6864C36.9918 27.3719 37.5943 27.2148 38.2679 27.2148C38.9316 27.2148 39.5061 27.3656 39.9891 27.6665C40.4721 27.9675 40.8433 28.388 41.1026 28.9277C41.3619 29.4683 41.4908 30.0877 41.4908 30.7868C41.4913 30.9555 41.4353 31.0946 41.3235 31.2054ZM36.734 28.8878C36.341 29.2422 36.0926 29.7157 35.9888 30.3089H40.3001C40.2223 29.7162 40.0066 29.2422 39.6535 28.8878C39.2994 28.5338 38.8372 28.3569 38.2679 28.3569C37.6379 28.3574 37.1269 28.5338 36.734 28.8878Z" fill="#00CC99"/>
<path d="M50.436 34.1132C49.8913 33.7992 49.469 33.3631 49.167 32.8054C48.8646 32.2473 48.7139 31.6148 48.7139 30.9064C48.7139 30.1888 48.8646 29.5519 49.167 28.9943C49.4685 28.4366 49.8913 28.0005 50.436 27.6864C50.9797 27.3719 51.5964 27.2148 52.2875 27.2148C52.9687 27.2148 53.5797 27.3719 54.1192 27.6864C54.6581 28.0005 55.0819 28.4366 55.3881 28.9943C55.6943 29.5519 55.8479 30.1893 55.8479 30.9064C55.8479 31.6148 55.6972 32.2473 55.3948 32.8054C55.0933 33.3631 54.6724 33.7992 54.1324 34.1132C53.5935 34.4278 52.9782 34.5848 52.2885 34.5848C51.5969 34.5848 50.9797 34.4278 50.436 34.1132ZM53.4717 33.0709C53.821 32.8584 54.0931 32.5643 54.287 32.1875C54.4823 31.8112 54.5785 31.3843 54.5785 30.9064C54.5785 30.428 54.4818 29.9987 54.287 29.618C54.0926 29.2378 53.821 28.9408 53.4717 28.7283C53.1223 28.5163 52.7274 28.4099 52.2875 28.4099C51.8467 28.4099 51.4523 28.5163 51.1025 28.7283C50.7531 28.9408 50.4787 29.2378 50.2796 29.618C50.0819 29.9987 49.9824 30.428 49.9824 30.9064C49.9824 31.3843 50.0819 31.8112 50.2796 32.1875C50.4782 32.5638 50.7526 32.8579 51.1025 33.0709C51.4518 33.2833 51.8467 33.3893 52.2875 33.3893C52.7274 33.3893 53.1218 33.2833 53.4717 33.0709Z" fill="#00CC99"/>
<path d="M58.0797 34.2202C57.7815 34.0121 57.5507 33.7204 57.3871 33.3441C57.2227 32.9678 57.1416 32.5453 57.1416 32.0761V24.8253C57.1416 24.6308 57.2013 24.4708 57.3222 24.3473C57.4431 24.2234 57.5986 24.1611 57.7882 24.1611C57.9778 24.1611 58.1333 24.2234 58.2541 24.3473C58.375 24.4708 58.4357 24.6308 58.4357 24.8253V32.0756C58.4357 32.4028 58.4964 32.6732 58.6172 32.8856C58.7381 33.0976 58.8936 33.2041 59.0832 33.2041H59.4065C59.579 33.2041 59.7198 33.2663 59.8274 33.3898C59.936 33.5138 59.9891 33.6732 59.9891 33.8677C59.9891 34.0627 59.9071 34.2221 59.7435 34.3461C59.579 34.4696 59.3676 34.5318 59.1098 34.5318H59.0837C58.712 34.5323 58.3779 34.4283 58.0797 34.2202Z" fill="#00CC99"/>
<path d="M66.015 27.6996C66.5549 28.0229 66.982 28.4658 67.2972 29.0273C67.6115 29.5898 67.7694 30.216 67.7694 30.9069V33.8677C67.7694 34.0627 67.7073 34.2246 67.5816 34.3524C67.456 34.4808 67.2991 34.545 67.1095 34.545C66.919 34.545 66.7621 34.4808 66.6374 34.3524C66.5118 34.2241 66.4497 34.0627 66.4497 33.8677V33.3767C66.1473 33.7573 65.7804 34.0539 65.349 34.2664C64.9172 34.4784 64.4512 34.5848 63.9511 34.5848C63.3297 34.5848 62.766 34.4254 62.2612 34.1064C61.7564 33.788 61.3591 33.348 61.07 32.7855C60.7808 32.2235 60.6367 31.5968 60.6367 30.9064C60.6367 30.216 60.7922 29.5898 61.1027 29.0268C61.4132 28.4653 61.8422 28.0224 62.3906 27.6991C62.9386 27.3763 63.5458 27.2148 64.2104 27.2148C64.8735 27.2148 65.4756 27.3767 66.015 27.6996ZM65.3808 33.0645C65.7301 32.8477 66.0041 32.5511 66.2027 32.1748C66.4013 31.7985 66.5009 31.376 66.5009 30.9069C66.5009 30.4377 66.4013 30.0128 66.2027 29.6321C66.0041 29.2514 65.7306 28.9529 65.3808 28.7361C65.0314 28.5193 64.6403 28.4104 64.2094 28.4104C63.7776 28.4104 63.3865 28.5193 63.0372 28.7361C62.6878 28.9529 62.4115 29.2514 62.2091 29.6321C62.0057 30.0128 61.9047 30.4382 61.9047 30.9069C61.9047 31.376 62.0057 31.7985 62.2091 32.1748C62.4115 32.5511 62.6878 32.8477 63.0372 33.0645C63.3865 33.2814 63.7776 33.3898 64.2094 33.3898C64.6403 33.3893 65.0314 33.2814 65.3808 33.0645Z" fill="#00CC99"/>
<path d="M74.1901 27.6004C74.665 27.8663 75.0362 28.2533 75.3035 28.7623C75.5709 29.2714 75.7055 29.8844 75.7055 30.6015V33.8682C75.7055 34.0631 75.6425 34.225 75.5178 34.3529C75.3922 34.4813 75.2353 34.5454 75.0447 34.5454C74.8551 34.5454 74.6977 34.4813 74.5726 34.3529C74.4479 34.2245 74.3849 34.0631 74.3849 33.8682V30.6015C74.3849 29.8844 74.1972 29.3423 73.8222 28.9748C73.4463 28.6077 72.9481 28.4235 72.3267 28.4235C71.9645 28.4235 71.6341 28.4988 71.336 28.649C71.0378 28.8003 70.805 29.0035 70.6368 29.2597C70.469 29.5169 70.3846 29.8042 70.3846 30.1231V33.8677C70.3846 34.0627 70.3239 34.2245 70.203 34.3524C70.0822 34.4808 69.9219 34.5449 69.7233 34.5449C69.5337 34.5449 69.3763 34.4808 69.2512 34.3524C69.1256 34.2241 69.0635 34.0627 69.0635 33.8677V24.8384C69.0635 24.6352 69.1256 24.4713 69.2512 24.3473C69.3768 24.2234 69.5337 24.1611 69.7233 24.1611C69.9219 24.1611 70.0817 24.2234 70.203 24.3473C70.3239 24.4708 70.3846 24.6352 70.3846 24.8384V28.0919C70.66 27.8089 70.988 27.5892 71.3682 27.4346C71.7474 27.28 72.1541 27.2022 72.5855 27.2022C73.1804 27.2022 73.716 27.3349 74.1901 27.6004Z" fill="#00CC99"/>
<path d="M29.0367 21.9853C28.7386 21.7772 28.5077 21.4855 28.3442 21.1092C28.1797 20.7329 28.0986 20.3104 28.0986 19.8413V12.5909C28.0986 12.3964 28.1584 12.2365 28.2792 12.113C28.4001 11.989 28.5556 11.9268 28.7452 11.9268C28.9348 11.9268 29.0903 11.989 29.2112 12.113C29.332 12.2365 29.3927 12.3964 29.3927 12.5909V19.8413C29.3927 20.1685 29.4534 20.4388 29.5743 20.6512C29.6951 20.8632 29.8506 20.9697 30.0402 20.9697H30.3635C30.5361 20.9697 30.6769 21.0319 30.7845 21.1554C30.893 21.2794 30.9461 21.4388 30.9461 21.6333C30.9461 21.8283 30.8641 21.9877 30.7006 22.1117C30.5361 22.2352 30.3247 22.2974 30.0668 22.2974H30.0407C29.6691 22.2974 29.3349 22.1939 29.0367 21.9853Z" fill="#00CC99"/>
<path d="M38.0533 15.2062C38.1742 15.3302 38.2348 15.4945 38.2348 15.6978V21.6204C38.2348 21.8149 38.1742 21.9768 38.0533 22.1046C37.9324 22.2335 37.7731 22.2971 37.5745 22.2971C37.384 22.2971 37.2271 22.2335 37.1024 22.1046C36.9768 21.9763 36.9147 21.8149 36.9147 21.6204V21.474C36.6383 21.7575 36.3103 21.9768 35.9301 22.1318C35.55 22.2865 35.1442 22.3638 34.7138 22.3638C34.1179 22.3638 33.5823 22.2315 33.1083 21.9656C32.6333 21.7001 32.2621 21.3131 31.9948 20.8036C31.7274 20.2946 31.5938 19.682 31.5938 18.9644V15.6978C31.5938 15.5033 31.6558 15.3414 31.7805 15.213C31.9061 15.0852 32.063 15.021 32.2536 15.021C32.4432 15.021 32.6006 15.0852 32.7257 15.213C32.8504 15.3419 32.9134 15.5033 32.9134 15.6978V18.9644C32.9134 19.682 33.1011 20.2241 33.4761 20.5911C33.852 20.9582 34.3502 21.1425 34.9716 21.1425C35.3348 21.1425 35.6642 21.0671 35.9624 20.9164C36.2605 20.7657 36.4933 20.5625 36.6615 20.3058C36.8293 20.0491 36.9142 19.7617 36.9142 19.4428V15.6978C36.9142 15.4945 36.9763 15.3307 37.1019 15.2062C37.2266 15.0827 37.3835 15.0205 37.574 15.0205C37.7731 15.0205 37.9319 15.0827 38.0533 15.2062Z" fill="#00CC99"/>
<path d="M44.8197 15.4652C45.3596 15.7885 45.7867 16.2314 46.1019 16.7929C46.4162 17.3555 46.5741 17.9817 46.5741 18.6725V21.6333C46.5741 21.8283 46.512 21.9897 46.3863 22.1181C46.2607 22.2464 46.1038 22.3106 45.9142 22.3106C45.7237 22.3106 45.5668 22.2464 45.4421 22.1181C45.3165 21.9897 45.2544 21.8283 45.2544 21.6333V21.1423C44.9519 21.523 44.585 21.8195 44.1537 22.032C43.7218 22.244 43.2559 22.3505 42.7558 22.3505C42.1343 22.3505 41.5707 22.191 41.0659 21.8721C40.5611 21.5536 40.1638 21.1136 39.8747 20.5511C39.5855 19.9891 39.4414 19.3624 39.4414 18.672C39.4414 17.9817 39.5969 17.3555 39.9074 16.7925C40.2179 16.2309 40.6469 15.788 41.1953 15.4647C41.7433 15.1419 42.3505 14.9805 43.0151 14.9805C43.6782 14.9805 44.2803 15.1424 44.8197 15.4652ZM44.1854 20.8297C44.5348 20.6129 44.8088 20.3163 45.0074 19.94C45.206 19.5637 45.3056 19.1412 45.3056 18.672C45.3056 18.2029 45.206 17.7779 45.0074 17.3973C44.8088 17.0166 44.5353 16.7181 44.1854 16.5012C43.8361 16.2844 43.445 16.1755 43.0141 16.1755C42.5823 16.1755 42.1912 16.2844 41.8419 16.5012C41.4925 16.7181 41.2162 17.0166 41.0137 17.3973C40.8104 17.7779 40.7094 18.2033 40.7094 18.672C40.7094 19.1412 40.8104 19.5637 41.0137 19.94C41.2162 20.3163 41.4925 20.6129 41.8419 20.8297C42.1912 21.0465 42.5823 21.1549 43.0141 21.1549C43.445 21.1549 43.8361 21.0465 44.1854 20.8297Z" fill="#00CC99"/>
<path d="M52.4385 15.1666C52.6978 15.3085 52.8267 15.485 52.8267 15.698C52.8267 15.7602 52.822 15.8039 52.8139 15.8307C52.7362 16.1141 52.5636 16.2556 52.2953 16.2556C52.2527 16.2556 52.1877 16.2469 52.101 16.2293C51.7559 16.1671 51.4753 16.1365 51.2601 16.1365C50.6377 16.1365 50.1376 16.2828 49.7584 16.5745C49.3782 16.8667 49.1886 17.261 49.1886 17.7564V21.6337C49.1886 21.8462 49.1346 22.01 49.0269 22.1252C48.9184 22.2405 48.7568 22.2978 48.5411 22.2978C48.3344 22.2978 48.1742 22.2429 48.0623 22.132C47.9495 22.0212 47.8936 21.8549 47.8936 21.6337V15.698C47.8936 15.4855 47.9495 15.3217 48.0623 15.2064C48.1742 15.0917 48.3339 15.0338 48.5411 15.0338C48.9729 15.0338 49.1886 15.255 49.1886 15.698V15.9503C49.4479 15.6406 49.7664 15.397 50.1466 15.22C50.5258 15.0431 50.9316 14.9541 51.3629 14.9541C51.8218 14.9541 52.1792 15.0256 52.4385 15.1666Z" fill="#00CC99"/>
</svg>
