<svg width="52" height="14" viewBox="0 0 52 14" fill="none" xmlns="http://www.w3.org/2000/svg">
<g clip-path="url(#clip0_11_1527)">
<path d="M0 5.45466C0 4.98615 0.083544 4.55177 0.250259 4.15147C0.417347 3.75156 0.647837 3.40396 0.942109 3.10905C1.23638 2.81414 1.58062 2.58178 1.9741 2.41196C2.36758 2.24214 2.79126 2.15723 3.24441 2.15723C3.69758 2.15723 4.12088 2.24403 4.51474 2.41802C4.90859 2.59201 5.25021 2.82627 5.54038 3.12118C5.83054 3.41609 6.06103 3.76367 6.23222 4.16358C6.40306 4.56349 6.48884 4.99413 6.48884 5.45466C6.48884 5.91523 6.40344 6.34548 6.23222 6.74574C6.06103 7.14565 5.83054 7.49327 5.54038 7.78818C5.24983 8.08309 4.90822 8.31773 4.51474 8.49133C4.12126 8.66493 3.69792 8.75212 3.24441 8.75212C2.90241 8.75212 2.55853 8.68124 2.21242 8.53984C1.86669 8.39844 1.59032 8.2309 1.38332 8.03682V12.332H0V5.45466ZM1.3837 5.45466C1.3837 5.71356 1.4333 5.95768 1.53288 6.18816C1.63209 6.41863 1.76561 6.61838 1.93233 6.7882C2.09942 6.95802 2.29634 7.09336 2.52273 7.1942C2.74949 7.29538 2.98968 7.34582 3.24441 7.34582C3.49877 7.34582 3.73935 7.29538 3.96574 7.1942C4.19247 7.09336 4.38942 6.95763 4.55613 6.7882C4.72284 6.61838 4.85635 6.41863 4.95557 6.18816C5.05478 5.95768 5.10475 5.71356 5.10475 5.45466C5.10475 5.19615 5.05478 4.95168 4.95557 4.7212C4.85601 4.49073 4.72284 4.29095 4.55613 4.12113C4.38942 3.95131 4.19213 3.816 3.96574 3.71516C3.73897 3.61433 3.49839 3.56354 3.24441 3.56354C2.98968 3.56354 2.74949 3.61394 2.52273 3.71516C2.29597 3.81638 2.09942 3.95169 1.93233 4.12113C1.76561 4.29095 1.63209 4.49073 1.53288 4.7212C1.4333 4.95168 1.3837 5.19615 1.3837 5.45466Z" fill="#2A72C7"/>
<path d="M14.512 5.44297C14.512 4.9824 14.5974 4.55215 14.7682 4.15189C14.939 3.75198 15.1717 3.40437 15.466 3.10946C15.7599 2.81455 16.1042 2.58029 16.4976 2.4063C16.8915 2.23269 17.3148 2.14551 17.768 2.14551C18.2211 2.14551 18.6448 2.23231 19.0383 2.4063C19.4317 2.58029 19.7737 2.81455 20.0639 3.10946C20.3541 3.40437 20.5846 3.75198 20.7558 4.15189C20.9266 4.5518 21.012 4.9824 21.012 5.44297V8.48569H19.6283V8.14605C19.0875 8.54215 18.4673 8.74004 17.7676 8.74004C17.2745 8.74004 16.827 8.65513 16.4257 8.48569C16.024 8.31587 15.682 8.08158 15.4 7.78251C15.1177 7.48343 14.8991 7.13396 14.744 6.73405C14.5892 6.33414 14.512 5.90388 14.512 5.44297ZM15.8953 5.44297C15.8953 5.70186 15.9449 5.94595 16.0449 6.17643C16.1445 6.4069 16.278 6.60703 16.4458 6.7765C16.6132 6.94632 16.8105 7.08163 17.0381 7.18247C17.2656 7.28369 17.5069 7.33409 17.7623 7.33409C18.0175 7.33409 18.2588 7.28785 18.4859 7.19458C18.7134 7.10172 18.9107 6.97019 19.0782 6.80076C19.2457 6.63094 19.3795 6.43116 19.4791 6.20069C19.5787 5.97025 19.6287 5.71779 19.6287 5.44297C19.6287 5.18442 19.5787 4.93995 19.4791 4.70947C19.3795 4.479 19.246 4.27925 19.0782 4.10943C18.9107 3.93961 18.7134 3.80427 18.4859 3.70343C18.2584 3.60264 18.0175 3.55181 17.7623 3.55181C17.5069 3.55181 17.2656 3.60225 17.0381 3.70343C16.8105 3.80465 16.6132 3.93996 16.4458 4.10943C16.2783 4.27925 16.1448 4.479 16.0449 4.70947C15.9453 4.93995 15.8953 5.18442 15.8953 5.44297Z" fill="#2A72C7"/>
<path d="M23.3898 4.55819L25.5724 2.42447H27.4331L24.8209 5.00664L27.4331 8.48603H25.6321L23.7833 6.02518L23.4017 6.40083V8.48603H22.0061V0H23.3898V4.55819Z" fill="#2A72C7"/>
<path d="M29.1853 5.54023C29.1931 5.79076 29.2487 6.02502 29.352 6.24338C29.4554 6.46133 29.5907 6.65162 29.7578 6.81311C29.9246 6.97495 30.1196 7.10232 30.3423 7.19521C30.5649 7.28806 30.7992 7.33468 31.046 7.33468C31.4593 7.33468 31.8132 7.23157 32.1075 7.02574C32.4018 6.81955 32.6166 6.54284 32.7516 6.19522H34.2662C34.1308 6.65579 33.9518 7.0481 33.7295 7.37108C33.5069 7.69441 33.2525 7.95712 32.9665 8.15914C32.68 8.3612 32.3738 8.50865 32.0478 8.60151C31.7219 8.69436 31.3877 8.74102 31.0457 8.74102C30.5925 8.74102 30.1692 8.65418 29.7753 8.48058C29.3819 8.30698 29.0391 8.07273 28.7475 7.77743C28.4554 7.48252 28.2249 7.13494 28.0556 6.73503C27.8859 6.33512 27.8013 5.90448 27.8013 5.44395C27.8013 4.98338 27.8859 4.55313 28.0556 4.15287C28.2249 3.75296 28.4554 3.40534 28.7475 3.11044C29.0388 2.81553 29.3819 2.58126 29.7753 2.40728C30.1692 2.23367 30.5925 2.14648 31.0457 2.14648C31.5466 2.14648 31.9956 2.23935 32.3936 2.42547C32.7911 2.61159 33.1291 2.85988 33.4073 3.17108C33.6852 3.48229 33.9022 3.84392 34.0574 4.25594C34.2125 4.668 34.2938 5.09671 34.3016 5.54097H29.1853V5.54023ZM32.7516 4.59446C32.6323 4.25482 32.4215 3.96635 32.1194 3.72755C31.8173 3.4895 31.4638 3.37009 31.058 3.37009C30.6526 3.37009 30.2986 3.4895 29.9965 3.72755C29.6941 3.96597 29.4833 4.25482 29.3644 4.59446H32.7516Z" fill="#2A72C7"/>
<path d="M45.1528 5.44297C45.1528 4.9824 45.2382 4.55215 45.409 4.15189C45.5798 3.75198 45.8126 3.40437 46.1071 3.10946C46.4008 2.81455 46.7452 2.58029 47.1385 2.4063C47.5324 2.23269 47.9557 2.14551 48.4089 2.14551C48.8621 2.14551 49.2856 2.23231 49.6792 2.4063C50.0725 2.58029 50.4148 2.81455 50.7048 3.10946C50.9951 3.40437 51.2255 3.75198 51.3966 4.15189C51.5674 4.5518 51.6528 4.9824 51.6528 5.44297V8.48569H50.2691V8.14605C49.7285 8.54215 49.1083 8.74004 48.4085 8.74004C47.9154 8.74004 47.468 8.65513 47.0665 8.48569C46.665 8.31587 46.323 8.08158 46.041 7.78251C45.7586 7.48343 45.5399 7.13396 45.3849 6.73405C45.23 6.33414 45.1528 5.90388 45.1528 5.44297ZM46.5362 5.44297C46.5362 5.70186 46.5858 5.94595 46.6856 6.17643C46.7858 6.4069 46.9188 6.60703 47.0868 6.7765C47.2545 6.94594 47.4515 7.08163 47.6791 7.18247C47.9064 7.28369 48.1478 7.33409 48.4033 7.33409C48.6585 7.33409 48.8996 7.28785 49.1269 7.19458C49.3545 7.10172 49.5515 6.97019 49.7192 6.80076C49.8866 6.63094 50.0205 6.43116 50.12 6.20069C50.2199 5.97025 50.2695 5.71779 50.2695 5.44297C50.2695 5.18442 50.2196 4.93995 50.12 4.70947C50.0205 4.479 49.8869 4.27925 49.7192 4.10943C49.5515 3.93961 49.3545 3.80427 49.1269 3.70343C48.8992 3.60264 48.6585 3.55181 48.4033 3.55181C48.1478 3.55181 47.9064 3.60225 47.6791 3.70343C47.4515 3.80465 47.2542 3.93996 47.0868 4.10943C46.9191 4.27925 46.7858 4.479 46.6856 4.70947C46.5858 4.93995 46.5362 5.18442 46.5362 5.44297Z" fill="#2A72C7"/>
<path d="M7.45253 4.15189C7.62371 3.75198 7.85423 3.40437 8.1444 3.10946C8.43491 2.81455 8.77656 2.58029 9.17004 2.4063C9.5639 2.23269 9.9872 2.14551 10.4404 2.14551C10.8935 2.14551 11.3172 2.23231 11.7107 2.4063C12.1041 2.58029 12.4484 2.81455 12.7423 3.10946C13.0366 3.40437 13.2693 3.75198 13.4401 4.15189C13.6109 4.5518 13.6963 4.98202 13.6963 5.44297H12.3126C12.3126 5.18442 12.263 4.93995 12.1631 4.70947C12.0631 4.479 11.93 4.27925 11.7622 4.10943C11.5947 3.93961 11.3974 3.80427 11.1699 3.70343C10.9424 3.60264 10.701 3.55181 10.4456 3.55181C10.1905 3.55181 9.94915 3.60225 9.72203 3.70343C9.49451 3.80465 9.29722 3.93996 9.12975 4.10943C8.96194 4.27925 8.82839 4.479 8.72883 4.70947C8.62886 4.93995 8.57927 5.18442 8.57927 5.44297V8.1464V8.48605H7.19556V5.44332C7.19631 4.9824 7.28134 4.55215 7.45253 4.15189Z" fill="#2A72C7"/>
<path d="M35.3631 4.15189C35.5343 3.75198 35.765 3.40437 36.055 3.10946C36.3456 2.81455 36.6873 2.58029 37.0809 2.4063C37.4745 2.23269 37.8981 2.14551 38.3513 2.14551C38.8041 2.14551 39.228 2.23231 39.6213 2.4063C40.0149 2.58029 40.3593 2.81455 40.653 3.10946C40.9471 3.40437 41.1799 3.75198 41.3507 4.15189C41.5215 4.5518 41.6069 4.98202 41.6069 5.44297H40.2239C40.2239 5.18442 40.1744 4.93995 40.0745 4.70947C39.9746 4.479 39.8413 4.27925 39.6736 4.10943C39.5063 3.93961 39.3089 3.80427 39.0813 3.70343C38.8537 3.60264 38.6126 3.55181 38.3571 3.55181C38.1019 3.55181 37.8605 3.60225 37.6336 3.70343C37.406 3.80465 37.2086 3.93996 37.0413 4.10943C36.8739 4.27925 36.7399 4.479 36.6404 4.70947C36.5402 4.93995 36.4906 5.18442 36.4906 5.44297V8.1464V8.48605H35.1069V5.44332C35.1069 4.9824 35.1923 4.55215 35.3631 4.15189Z" fill="#2A72C7"/>
<path d="M44.2171 2.4248H42.8093V9.50376H44.2171V2.4248Z" fill="#2A72C7"/>
<path d="M43.7809 9.50293H42.8105H42.1186H40.7112C40.7112 9.74555 40.7528 9.9756 40.8365 10.194C40.9199 10.4123 41.0394 10.6018 41.194 10.7637C41.3493 10.9252 41.5342 11.0525 41.7491 11.1454C41.9637 11.2383 42.2023 11.2849 42.4647 11.2849C42.7113 11.2849 42.9417 11.2466 43.1566 11.1697C43.3714 11.0927 43.556 10.9775 43.7113 10.8244C43.8663 10.6708 43.9896 10.4828 44.0808 10.2607C44.1721 10.0382 44.2179 9.78573 44.2179 9.50293H43.7809Z" fill="#2A72C7"/>
<path d="M38.3806 6.31222C38.6351 6.31222 38.8458 6.22731 39.0129 6.05749C39.1799 5.88806 39.2636 5.68184 39.2636 5.43925C39.2636 5.18071 39.1799 4.96654 39.0129 4.79672C38.8462 4.6269 38.6354 4.54199 38.3806 4.54199C38.1419 4.54199 37.9394 4.6269 37.7724 4.79672C37.6054 4.96654 37.5217 5.18071 37.5217 5.43925C37.5217 5.68184 37.6054 5.88767 37.7724 6.05749C37.9391 6.22731 38.1419 6.31222 38.3806 6.31222Z" fill="#F05E00"/>
<path d="M48.3902 6.31222C48.6444 6.31222 48.8551 6.22731 49.0221 6.05749C49.1895 5.88806 49.2728 5.68184 49.2728 5.43925C49.2728 5.18071 49.1895 4.96654 49.0221 4.79672C48.8555 4.6269 48.6447 4.54199 48.3902 4.54199C48.1516 4.54199 47.9487 4.6269 47.7817 4.79672C47.6147 4.96654 47.531 5.18071 47.531 5.43925C47.531 5.68184 47.6147 5.88767 47.7817 6.05749C47.9487 6.22731 48.1519 6.31222 48.3902 6.31222Z" fill="#F05E00"/>
<path d="M40.8497 13.6768C40.3383 13.4573 39.8955 13.1506 39.5335 12.7648C39.1688 12.3758 38.8858 11.9373 38.6922 11.4619C38.4984 10.9862 38.3975 10.4741 38.3923 9.93963C38.3878 9.50031 38.4601 9.06022 38.6068 8.62695L39.7625 9.12276C39.6833 9.3881 39.6455 9.66026 39.6496 9.93508C39.6551 10.3028 39.724 10.6542 39.8552 10.9798C39.986 11.3057 40.1785 11.6064 40.4275 11.8732C40.6796 12.1431 40.983 12.3554 41.3284 12.5036C41.6735 12.6518 42.0344 12.7246 42.4001 12.72C42.7624 12.7151 43.1084 12.6461 43.4294 12.5138C43.7514 12.3815 44.0479 12.1867 44.3096 11.9346C44.4639 11.7868 44.5999 11.6181 44.7163 11.4312L45.881 11.9308C45.6909 12.2792 45.4571 12.5889 45.1836 12.8538C44.8017 13.2234 44.3719 13.5085 43.9067 13.701C43.4408 13.8932 42.9373 13.9933 42.4101 13.999C41.8863 14.0047 41.3611 13.8959 40.8497 13.6768Z" fill="#F05E00"/>
</g>
<defs>
<clipPath id="clip0_11_1527">
<rect width="52" height="14" fill="white"/>
</clipPath>
</defs>
</svg>
